<svg width="28" height="28" viewBox="0 0 28 28" fill="none" xmlns="http://www.w3.org/2000/svg">
<path d="M11.5542 13.1809C12.9431 12.5171 13.6679 11.5126 13.6679 9.94908C13.6679 6.86569 11.3707 6.1145 8.71976 6.1145H1.42188V21.5927H8.92505C11.7376 21.5927 14.38 20.2431 14.38 17.0986C14.38 15.1551 13.4584 13.7183 11.5542 13.1809ZM4.82409 8.75684H8.01664C9.24388 8.75684 10.3488 9.10186 10.3488 10.5256C10.3488 11.8402 9.4885 12.3687 8.27433 12.3687H4.82409V8.75684ZM8.46212 18.9635H4.82409V14.7009H8.53202C10.0301 14.7009 10.9777 15.3255 10.9777 16.9109C10.9777 18.4743 9.84665 18.9635 8.46212 18.9635Z" fill="white"/>
<path d="M24.1191 6.92688H17.8433V8.45112H24.1191V6.92688Z" fill="white"/>
<path d="M26.578 16.151C26.578 12.8359 24.6388 10.0714 21.1231 10.0714C17.7078 10.0714 15.3887 12.6394 15.3887 16.0024C15.3887 19.4919 17.5856 21.8852 21.1231 21.8852C23.8003 21.8852 25.5342 20.6799 26.3684 18.1162H23.6518C23.3592 19.0727 22.1537 19.5792 21.2192 19.5792C19.4155 19.5792 18.4677 18.5224 18.4677 16.7274H26.5518C26.5649 16.544 26.578 16.3475 26.578 16.151ZM18.472 14.7883C18.5725 13.3164 19.5508 12.3949 21.027 12.3949C22.573 12.3949 23.3505 13.3032 23.4814 14.7883H18.472Z" fill="white"/>
</svg>
