<svg width="28" height="28" viewBox="0 0 28 28" fill="none" xmlns="http://www.w3.org/2000/svg">
<path d="M14.0028 7.55173C10.4335 7.55173 7.55444 10.4308 7.55444 14C7.55444 17.5693 10.4335 20.4482 14.0028 20.4482C17.5721 20.4482 20.4511 17.5693 20.4511 14C20.4511 10.4308 17.572 7.55173 14.0028 7.55173ZM14.0028 18.1923C11.6962 18.1923 9.81051 16.3122 9.81051 14C9.81051 11.6879 11.6906 9.80787 14.0028 9.80787C16.3148 9.80787 18.195 11.6879 18.195 14C18.195 16.3122 16.3094 18.1923 14.0028 18.1923ZM22.2188 7.28803C22.2188 8.12426 21.5454 8.79205 20.7148 8.79205C19.8785 8.79205 19.2108 8.11862 19.2108 7.28803C19.2108 6.45744 19.8842 5.78396 20.7148 5.78396C21.5454 5.78396 22.2188 6.45738 22.2188 7.28803ZM26.4896 8.81441C26.3943 6.79978 25.9341 5.01505 24.4581 3.54472C22.9877 2.07434 21.2031 1.61415 19.1884 1.51319C17.1118 1.39534 10.8881 1.39534 8.81159 1.51319C6.80243 1.60851 5.01781 2.06876 3.54185 3.53915C2.06583 5.00953 1.61127 6.79415 1.51026 8.80883C1.39241 10.8853 1.39241 17.1091 1.51026 19.1856C1.60569 21.2004 2.06583 22.9849 3.54185 24.4554C5.01781 25.9257 6.7969 26.3859 8.81159 26.4869C10.888 26.6047 17.1118 26.6047 19.1884 26.4869C21.2031 26.3915 22.9878 25.9312 24.4581 24.4554C25.9285 22.9849 26.3886 21.2004 26.4896 19.1856C26.6075 17.1092 26.6075 10.8909 26.4896 8.81441ZM23.807 21.4136C23.3693 22.5135 22.5219 23.3611 21.4163 23.8044C19.7607 24.4611 15.8323 24.3095 14.0027 24.3095C12.1731 24.3095 8.23907 24.4554 6.58915 23.8044C5.48916 23.3666 4.64167 22.5193 4.19837 21.4136C3.54185 19.7581 3.69344 15.8296 3.69344 14C3.69344 12.1705 3.54748 8.23647 4.19843 6.5865C4.63626 5.48651 5.48358 4.63908 6.5892 4.19578C8.24476 3.53915 12.1732 3.69069 14.0028 3.69069C15.8323 3.69069 19.7664 3.54478 21.4163 4.19578C22.5163 4.63339 23.3637 5.48094 23.8071 6.5865C24.4637 8.242 24.3122 12.1705 24.3122 14C24.3122 15.8296 24.4636 19.7637 23.807 21.4136Z" fill="white"/>
</svg>
